<?xml version="1.0" standalone="no"?>
<!DOCTYPE svg PUBLIC "-//W3C//DTD SVG 20010904//EN"
 "http://www.w3.org/TR/2001/REC-SVG-20010904/DTD/svg10.dtd">
<svg version="1.0" xmlns="http://www.w3.org/2000/svg"
 width="500.000000pt" height="500.000000pt" viewBox="0 0 500.000000 500.000000"
 preserveAspectRatio="xMidYMid meet">
<metadata>
Created by potrace 1.11, written by Peter Selinger 2001-2013
</metadata>
<g transform="translate(0.000000,500.000000) scale(0.100000,-0.100000)"
fill="#000000" stroke="none">
<path d="M2 4958 l3 -42 658 -202 c362 -111 660 -204 663 -207 6 -6 -208 -112
-223 -111 -7 1 -10 -3 -6 -9 4 -6 0 -8 -11 -4 -11 5 -15 3 -10 -5 5 -8 2 -9
-10 -5 -11 5 -15 3 -10 -5 5 -8 2 -9 -10 -5 -9 4 -15 3 -12 -1 2 -4 -229 -125
-515 -267 l-519 -260 0 -32 c0 -32 24 -51 698 -555 383 -288 699 -526 702
-530 3 -4 73 10 155 31 83 22 395 103 695 181 300 77 553 143 563 146 13 4 19
-2 23 -24 l6 -29 999 615 c549 338 997 617 995 619 -1 2 -296 54 -655 117
-358 62 -654 116 -657 119 -4 3 35 113 86 244 51 131 95 244 97 251 4 9 -370
12 -1852 12 l-1856 0 3 -42z"/>
<path d="M4930 4308 c-36 -28 -64 -55 -63 -61 0 -7 30 -230 65 -497 l63 -485
3 278 c1 153 1 399 0 546 l-3 268 -65 -49z"/>
<path d="M495 4126 c-457 -208 -490 -225 -493 -249 -2 -15 0 -27 5 -26 12 0
1000 498 988 498 -5 -1 -230 -101 -500 -223z"/>
<path d="M2837 3002 c-2 -4 -66 -314 -142 -689 l-139 -682 -323 -378 c-178
-207 -326 -386 -329 -398 -2 -11 -31 -144 -64 -295 -33 -151 -73 -336 -90
-410 -16 -74 -30 -138 -30 -142 0 -5 738 -8 1640 -8 l1640 0 0 1249 c0 1181
-1 1250 -17 1255 -10 3 -490 116 -1068 251 -577 135 -1055 248 -1062 250 -7 2
-14 1 -16 -3z"/>
<path d="M993 2268 c-975 -1032 -993 -1052 -993 -1076 0 -20 4 -23 28 -18 15
3 583 107 1262 231 679 124 1239 227 1244 228 8 3 -1106 1058 -1124 1065 -5 2
-192 -192 -417 -430z"/>
<path d="M0 535 l0 -535 481 0 c456 0 481 1 468 17 -30 39 -941 1053 -945
1053 -2 0 -4 -241 -4 -535z"/>
</g>
</svg>
